# xmcd
# 
# Track frame offsets:
#     150
#     16447
#     31940
#     44410
#     57448
#     72125
#     90907
#     99418
#     110112
#     126444
#     141264
#     154268
#     161324
# 
# Disc length: 2382
# 
# Revision: 0
# Processed by: cddbd v1.5.2PL0 Copyright (c) Steve Scherf et al.
# Submitted via: fre:ac v1.0.31
# 
DISCID=ac094c0d
DTITLE=Émile Bilodeau - Rites de passage
DYEAR=2016
DGENRE=Folk/Rock
TTITLE0=J'en ai plein mon cass
TTITLE1=Crise existentielle
TTITLE2=Amour de félin
TTITLE3=Dehors
TTITLE4=Tu me dirais-tu
TTITLE5=América
TTITLE6=Rosie
TTITLE7=Quand les nuages seront partis
TTITLE8=Je suis un fou
TTITLE9=Passer à TV
TTITLE10=Bière
TTITLE11=Les poètes maudits
TTITLE12=Ça va
EXTD=
EXTT0=
EXTT1=
EXTT2=
EXTT3=
EXTT4=
EXTT5=
EXTT6=
EXTT7=
EXTT8=
EXTT9=
EXTT10=
EXTT11=
EXTT12=
PLAYORDER=
